<?xml version="1.0" standalone="no"?>
<!DOCTYPE svg PUBLIC "-//W3C//DTD SVG 20010904//EN"
 "http://www.w3.org/TR/2001/REC-SVG-20010904/DTD/svg10.dtd">
<svg version="1.0" xmlns="http://www.w3.org/2000/svg"
 width="1563.000000pt" height="1563.000000pt" viewBox="0 0 1563.000000 1563.000000"
 preserveAspectRatio="xMidYMid meet">
<metadata>
Created by potrace 1.15, written by Peter Selinger 2001-2017
</metadata>
<g transform="translate(0.000000,1563.000000) scale(0.100000,-0.100000)"
fill="#000000" stroke="none">
<path d="M0 7815 l0 -7815 7815 0 7815 0 0 7815 0 7815 -7815 0 -7815 0 0
-7815z m7024 4864 c-3 -6 1 -9 9 -7 9 2 15 0 14 -4 -3 -12 516 -527 525 -522
4 3 5 -3 1 -12 -4 -11 -3 -15 4 -11 7 5 9 -1 5 -15 -3 -11 -1 -19 4 -16 5 4 9
-255 9 -637 0 -376 -4 -641 -9 -638 -5 3 -7 -6 -4 -20 3 -17 1 -24 -5 -20 -6
4 -8 0 -4 -10 3 -9 1 -19 -5 -23 -7 -5 -8 -2 -3 6 5 9 4 11 -4 6 -7 -4 -10
-13 -8 -19 6 -17 -32 -57 -48 -51 -7 3 -16 0 -21 -7 -5 -8 -3 -10 7 -4 8 5 11
5 7 0 -10 -11 -60 -18 -133 -19 -59 -1 -64 1 -284 124 -123 69 -239 140 -258
158 -20 19 -39 30 -46 25 -7 -4 -5 2 3 12 14 17 13 18 -4 12 -17 -7 -17 -6 -5
10 12 15 12 16 -3 10 -15 -5 -16 -2 -7 20 7 19 6 24 -3 20 -10 -3 -12 61 -10
320 2 248 0 323 -9 317 -8 -4 -9 -3 -5 5 4 6 4 25 1 42 -5 22 -11 29 -22 24
-12 -4 -13 -2 -5 8 9 11 5 20 -16 40 -59 57 -61 57 -557 57 -298 0 -454 -3
-450 -10 3 -5 0 -7 -9 -4 -19 7 -64 -17 -98 -53 -62 -65 -58 25 -58 -1438 0
-878 3 -1334 10 -1330 6 3 7 -1 4 -9 -7 -18 41 -106 58 -106 6 0 1 12 -13 28
-23 26 -23 26 9 -2 33 -31 41 -43 20 -30 -9 5 -9 2 1 -9 16 -20 36 -23 25 -4
-5 8 -2 8 9 -2 20 -16 23 -26 5 -15 -9 5 -9 2 1 -9 16 -20 36 -23 25 -4 -4 7
-3 9 2 4 5 -5 9 -14 9 -20 0 -5 6 -12 14 -15 9 -3 11 0 5 9 -7 12 -5 12 9 0
20 -16 23 -26 5 -15 -9 5 -9 2 1 -9 16 -20 36 -23 25 -4 -4 7 -3 9 2 4 5 -5 9
-14 9 -20 0 -5 6 -12 14 -15 9 -3 11 0 5 9 -7 12 -5 12 9 0 20 -16 22 -25 5
-16 -7 4 1 -5 17 -19 17 -14 35 -24 42 -21 7 2 15 -1 19 -7 5 -7 2 -8 -7 -4
-8 4 0 -4 16 -18 17 -14 35 -24 42 -21 7 2 15 -1 19 -7 5 -7 2 -8 -7 -4 -8 4
0 -4 16 -18 17 -14 35 -24 42 -21 7 2 15 -1 19 -7 5 -7 2 -8 -7 -4 -8 4 0 -4
16 -18 17 -14 35 -24 42 -21 7 2 15 -1 19 -7 5 -7 2 -8 -7 -4 -8 4 0 -4 16
-18 17 -14 35 -24 42 -21 7 2 15 -1 19 -7 5 -7 2 -8 -7 -4 -8 4 0 -4 16 -18
17 -14 35 -24 42 -21 7 2 15 -1 19 -7 5 -7 2 -8 -7 -4 -8 4 0 -4 16 -18 17
-14 35 -24 42 -21 7 2 15 -1 19 -7 5 -7 2 -8 -7 -4 -8 4 0 -4 16 -18 17 -14
35 -24 42 -21 7 2 15 -1 19 -7 5 -7 2 -8 -7 -4 -8 4 0 -4 16 -18 17 -14 35
-24 42 -21 7 2 15 -1 19 -7 5 -7 2 -8 -6 -3 -9 5 -11 4 -6 -4 12 -18 66 -43
82 -37 9 3 12 1 9 -4 -12 -19 94 -11 135 10 55 28 92 70 78 87 -9 11 -7 12 8
6 17 -6 18 -5 4 12 -12 15 -12 17 -1 10 11 -6 13 -3 9 13 -4 13 -2 19 6 16 8
-3 10 112 6 448 -3 249 -7 454 -8 456 -1 2 -8 0 -14 -4 -10 -6 -10 -5 -1 8 26
32 -41 80 -387 278 -184 105 -348 205 -363 222 -37 39 -45 30 -11 -13 l26 -34
-31 33 c-27 29 -30 36 -19 50 11 13 11 15 -4 9 -13 -4 -15 -2 -11 10 4 10 2
14 -4 10 -8 -5 -10 84 -8 296 3 325 5 358 19 349 5 -3 7 2 4 10 -4 8 5 28 19
44 l25 29 -22 -32 c-27 -42 -13 -43 26 -2 16 17 45 38 64 46 44 19 141 33 133
20 -4 -6 3 -8 15 -5 12 4 20 2 17 -2 -7 -12 32 -23 46 -14 8 4 9 3 5 -4 -8
-14 50 -46 66 -36 7 4 8 3 4 -4 -8 -14 50 -46 66 -36 7 4 8 3 4 -4 -8 -14 30
-36 46 -26 7 4 8 3 4 -4 -8 -14 50 -46 66 -36 7 4 8 3 4 -4 -8 -14 50 -46 66
-36 7 4 8 3 4 -4 -8 -14 50 -46 66 -36 7 4 8 3 4 -4 -8 -14 50 -46 66 -36 7 4
8 3 4 -4 -8 -14 30 -36 46 -26 7 4 8 3 4 -4 -8 -14 50 -46 66 -36 7 4 8 3 4
-4 -8 -14 50 -46 66 -36 7 4 8 3 4 -4 -8 -14 30 -36 46 -26 7 4 8 3 4 -4 -8
-14 50 -46 66 -36 7 4 8 3 4 -4 -8 -14 50 -46 66 -36 7 4 8 3 4 -4 -8 -14 30
-36 46 -26 7 4 8 3 4 -4 -8 -14 50 -46 66 -36 7 4 8 3 4 -4 -8 -14 50 -46 66
-36 7 4 8 3 4 -4 -8 -14 50 -46 66 -36 7 4 8 3 4 -4 -8 -14 50 -46 66 -36 7 4
8 3 4 -4 -7 -12 26 -34 46 -30 7 2 12 -2 11 -8 -1 -6 12 -24 29 -40 l31 -29
-22 35 -23 35 25 -29 c14 -16 23 -36 19 -44 -3 -10 -1 -13 6 -8 8 5 10 1 5
-10 -4 -11 -2 -15 4 -11 6 4 8 -3 5 -20 -3 -14 -1 -23 4 -20 5 3 9 -610 9
-1483 0 -873 -4 -1486 -9 -1483 -5 3 -7 -6 -4 -20 3 -15 1 -24 -3 -21 -10 6
-32 -33 -25 -45 3 -4 -6 -19 -21 -32 -14 -13 -23 -18 -18 -10 5 9 3 12 -6 9
-8 -3 -14 -10 -14 -15 0 -6 -4 -15 -9 -20 -5 -5 -6 -3 -2 5 8 14 5 15 -18 6
-9 -3 -14 -9 -12 -13 2 -3 -25 -7 -60 -9 -83 -4 -114 10 -285 134 -76 55 -636
457 -1245 896 -610 438 -1119 807 -1130 820 -58 63 -54 -93 -54 2053 0 1916 0
1967 19 2003 22 42 72 92 116 116 27 14 144 15 1123 15 749 0 1091 -3 1086
-10z m3784 -4 c46 -20 86 -58 118 -111 l24 -41 0 -742 c-1 -550 -4 -740 -12
-735 -8 5 -9 2 -5 -10 4 -9 3 -15 -2 -12 -5 3 -15 -2 -22 -11 -19 -23 -426
-326 -469 -349 -37 -19 -183 -36 -172 -20 3 5 -2 6 -12 3 -11 -5 -15 -3 -10 5
5 8 2 9 -10 5 -11 -5 -15 -3 -10 5 5 8 2 9 -9 5 -9 -3 -19 -1 -23 5 -5 7 -2 8
6 3 9 -6 11 -4 6 4 -5 7 -14 10 -21 7 -7 -2 -21 5 -32 17 -16 19 -16 20 0 8 9
-7 17 -9 17 -3 0 14 -26 33 -34 25 -4 -4 -4 1 0 11 5 13 4 17 -4 12 -8 -5 -10
-1 -5 10 4 11 2 15 -4 11 -6 -4 -8 3 -5 20 3 14 1 23 -4 20 -5 -3 -8 177 -6
434 2 372 0 444 -13 475 -9 22 -19 33 -26 28 -8 -5 -9 -3 -4 5 9 16 -34 63
-52 57 -7 -3 -15 0 -19 6 -4 7 -3 8 4 4 7 -4 12 -4 12 -1 0 3 -16 13 -35 21
-28 11 -114 14 -483 14 -307 0 -460 -4 -483 -11 -49 -17 -122 -89 -107 -106 9
-11 7 -12 -8 -6 -17 6 -17 5 -5 -10 12 -15 12 -17 -3 -11 -14 5 -15 3 -6 -20
6 -18 6 -25 0 -21 -7 4 -10 -538 -10 -1610 0 -1072 3 -1614 10 -1610 6 4 6 -3
0 -21 -9 -23 -8 -25 6 -20 15 6 15 4 3 -11 -12 -15 -12 -16 5 -10 15 6 17 5 7
-6 -9 -11 -2 -23 34 -56 25 -23 57 -46 71 -51 32 -13 127 -13 120 -1 -4 5 2 7
12 5 16 -5 142 68 142 81 0 4 -5 3 -12 -1 -7 -4 -8 -3 -4 4 4 6 12 9 19 7 7
-3 26 7 42 21 17 14 24 22 16 18 -9 -4 -12 -3 -7 4 4 6 12 9 19 7 7 -3 26 7
42 21 17 14 24 23 18 19 -18 -9 -16 0 4 16 14 12 16 12 9 0 -6 -9 -4 -12 5 -9
8 3 14 10 14 16 0 5 4 14 9 19 5 5 6 3 2 -4 -11 -19 9 -16 25 4 10 11 10 14 2
9 -19 -11 -16 -1 4 15 14 12 16 12 9 0 -6 -9 -4 -12 5 -9 8 3 14 10 14 15 0 6
4 15 9 20 5 5 6 3 2 -4 -11 -19 9 -16 25 4 10 11 10 14 2 9 -19 -11 -16 -1 4
15 14 12 16 12 9 0 -6 -9 -4 -12 5 -9 8 3 14 10 14 15 0 6 4 15 9 20 5 5 6 3
2 -4 -11 -19 9 -16 25 4 10 11 10 14 2 9 -19 -11 -16 -1 4 15 14 12 16 12 9 0
-6 -9 -4 -12 5 -9 8 3 14 10 14 15 0 6 4 15 9 20 5 5 6 3 2 -4 -11 -19 9 -16
25 4 10 11 10 14 2 9 -19 -11 -16 -1 4 15 11 10 14 10 9 2 -11 -19 9 -16 25 4
12 14 12 16 0 8 -9 -5 -12 -4 -7 3 4 6 12 9 19 7 7 -3 26 7 42 21 17 14 24 22
16 18 -9 -4 -12 -3 -7 4 4 6 12 9 19 7 7 -3 26 7 42 21 17 14 24 22 16 18 -9
-4 -12 -3 -7 4 4 6 12 9 19 7 7 -3 26 7 42 21 17 14 24 22 16 18 -9 -4 -12 -3
-7 4 4 6 12 9 19 7 7 -3 26 7 42 21 17 14 24 23 18 19 -18 -9 -16 0 4 16 11
10 14 10 9 2 -4 -7 -3 -13 3 -13 18 0 64 70 65 99 1 16 4 27 9 24 4 -2 6 171
5 385 -2 228 1 388 6 385 5 -3 7 6 4 20 -3 17 -1 24 5 20 6 -4 8 0 4 10 -4 10
-2 16 5 14 6 -1 13 4 16 12 3 9 0 11 -9 6 -7 -5 -3 6 10 23 27 39 38 42 14 5
l-17 -28 27 24 c14 13 24 27 22 31 -3 4 3 14 12 21 14 12 16 12 9 0 -6 -9 -4
-12 5 -9 8 3 14 10 14 16 0 5 4 14 9 19 5 5 6 3 2 -4 -11 -19 9 -16 25 4 12
14 12 16 0 8 -10 -5 -12 -4 -7 4 4 6 11 9 16 6 12 -8 61 25 55 35 -3 5 0 12 6
16 8 4 9 3 5 -4 -11 -18 10 -14 25 5 12 15 12 16 -1 8 -13 -8 -13 -7 -1 8 15
19 26 23 15 6 -4 -7 -1 -10 7 -7 8 3 14 10 14 16 0 5 4 14 9 19 5 5 6 3 2 -4
-11 -19 9 -16 25 4 12 14 12 16 0 8 -10 -5 -12 -4 -7 4 4 6 11 9 16 6 12 -8
61 25 55 35 -3 5 0 12 6 16 8 4 9 3 5 -4 -11 -18 10 -14 25 5 10 11 10 14 2 9
-19 -11 -16 -1 4 15 14 12 16 12 9 0 -6 -9 -4 -12 5 -9 8 3 14 10 14 16 0 5 4
14 9 19 5 5 6 2 1 -6 -5 -9 -3 -12 6 -9 8 3 13 10 12 16 -2 7 4 9 14 5 10 -4
14 -2 10 4 -5 7 1 9 15 5 12 -3 19 -1 15 4 -9 15 124 -1 159 -19 17 -9 45 -30
64 -47 39 -37 49 -34 18 6 -18 24 -19 26 -2 12 10 -9 27 -32 37 -50 13 -23 13
-27 3 -14 -20 25 -20 14 -1 -24 13 -26 15 -125 12 -777 -2 -412 -7 -763 -10
-782 -3 -20 -18 -46 -38 -65 l-33 -31 32 38 c37 43 43 63 10 28 -19 -19 -388
-285 -2076 -1499 -87 -61 -175 -125 -197 -140 -22 -16 -92 -66 -155 -112 -63
-45 -129 -89 -147 -96 -43 -18 -115 -18 -160 1 -42 18 -46 18 -38 5 10 -16 -1
-11 -16 7 -12 15 -12 16 1 8 9 -5 8 0 -4 13 -23 26 -45 30 -25 5 13 -16 12
-17 -3 -5 -9 8 -15 19 -12 27 3 7 0 16 -7 21 -8 5 -10 3 -4 -6 5 -8 4 -11 -3
-6 -6 4 -8 14 -5 23 4 11 3 14 -5 9 -8 -5 -10 -1 -5 10 4 11 2 15 -4 11 -6 -4
-8 3 -5 20 3 14 1 23 -4 20 -5 -3 -9 1079 -9 2623 0 1544 4 2626 9 2623 5 -3
7 6 4 20 -3 17 -1 24 5 20 6 -4 8 0 4 11 -5 11 -3 15 4 10 7 -4 10 -1 6 7 -7
20 501 529 521 521 10 -3 13 -1 8 6 -5 8 -1 10 10 5 12 -4 15 -3 10 5 -5 9
267 12 1079 12 963 0 1089 -2 1123 -15z m-6038 -8 c0 -2 -17 -19 -37 -38 l-38
-34 34 38 c33 34 41 42 41 34z m6126 -29 l29 -33 -32 29 c-18 17 -33 31 -33
33 0 8 8 1 36 -29z m-3571 -228 c137 -137 248 -250 245 -250 -3 0 -118 113
-255 250 -137 138 -248 250 -245 250 3 0 118 -112 255 -250z m1655 -593 c0 -2
-17 -19 -37 -38 l-38 -34 34 38 c33 34 41 42 41 34z m-3391 -34 c-40 -47 -42
-49 -34 -33 10 19 47 60 53 60 3 0 -5 -12 -19 -27z m1096 7 c10 -11 16 -20 13
-20 -3 0 -13 9 -23 20 -10 11 -16 20 -13 20 3 0 13 -9 23 -20z m3360 0 c10
-11 16 -20 13 -20 -3 0 -13 9 -23 20 -10 11 -16 20 -13 20 3 0 13 -9 23 -20z
m885 -783 c0 -2 -12 -14 -27 -28 l-28 -24 24 28 c23 25 31 32 31 24z m-60 -51
c0 -2 -8 -10 -17 -17 -16 -13 -17 -12 -4 4 13 16 21 21 21 13z m-4060 -31 c13
-14 21 -25 18 -25 -2 0 -15 11 -28 25 -13 14 -21 25 -18 25 2 0 15 -11 28 -25z
m4020 1 c0 -2 -8 -10 -17 -17 -16 -13 -17 -12 -4 4 13 16 21 21 21 13z m-40
-30 c0 -2 -8 -10 -17 -17 -16 -13 -17 -12 -4 4 13 16 21 21 21 13z m-40 -30
c0 -2 -8 -10 -17 -17 -16 -13 -17 -12 -4 4 13 16 21 21 21 13z m-40 -30 c0 -2
-8 -10 -17 -17 -16 -13 -17 -12 -4 4 13 16 21 21 21 13z m-40 -30 c0 -2 -8
-10 -17 -17 -16 -13 -17 -12 -4 4 13 16 21 21 21 13z m-40 -30 c0 -2 -8 -10
-17 -17 -16 -13 -17 -12 -4 4 13 16 21 21 21 13z m-70 -50 c0 -2 -8 -10 -17
-17 -16 -13 -17 -12 -4 4 13 16 21 21 21 13z m-40 -30 c0 -2 -8 -10 -17 -17
-16 -13 -17 -12 -4 4 13 16 21 21 21 13z m-30 -550 c0 -2 -8 -10 -17 -17 -16
-13 -17 -12 -4 4 13 16 21 21 21 13z m-170 -120 c0 -2 -8 -10 -17 -17 -16 -13
-17 -12 -4 4 13 16 21 21 21 13z m-3609 -658 c15 -28 5 -21 -21 15 -15 20 -17
27 -6 18 9 -8 22 -23 27 -33z m3369 -395 c0 -5 -10 -19 -21 -33 l-21 -25 18
33 c18 32 24 38 24 25z m-90 -87 c0 -2 -8 -10 -17 -17 -16 -13 -17 -12 -4 4
13 16 21 21 21 13z m-70 -50 c0 -2 -8 -10 -17 -17 -16 -13 -17 -12 -4 4 13 16
21 21 21 13z m-70 -50 c0 -2 -8 -10 -17 -17 -16 -13 -17 -12 -4 4 13 16 21 21
21 13z m-4019 -33 c13 -16 12 -17 -3 -4 -10 7 -18 15 -18 17 0 8 8 3 21 -13z
m3949 -17 c0 -2 -8 -10 -17 -17 -16 -13 -17 -12 -4 4 13 16 21 21 21 13z
m-3879 -33 c13 -16 12 -17 -3 -4 -10 7 -18 15 -18 17 0 8 8 3 21 -13z m70 -50
c13 -16 12 -17 -3 -4 -10 7 -18 15 -18 17 0 8 8 3 21 -13z m70 -50 c13 -16 12
-17 -3 -4 -10 7 -18 15 -18 17 0 8 8 3 21 -13z m70 -50 c13 -16 12 -17 -3 -4
-10 7 -18 15 -18 17 0 8 8 3 21 -13z m70 -50 c13 -16 12 -17 -3 -4 -10 7 -18
15 -18 17 0 8 8 3 21 -13z m-1441 -28 c19 -19 32 -35 29 -35 -3 0 -20 16 -39
35 -19 19 -32 35 -29 35 3 0 20 -16 39 -35z m1511 -22 c13 -16 12 -17 -3 -4
-10 7 -18 15 -18 17 0 8 8 3 21 -13z m3139 3 c0 -2 -8 -10 -17 -17 -16 -13
-17 -12 -4 4 13 16 21 21 21 13z m1440 -30 c0 -2 -8 -10 -17 -17 -16 -13 -17
-12 -4 4 13 16 21 21 21 13z m-5999 -23 c13 -16 12 -17 -3 -4 -10 7 -18 15
-18 17 0 8 8 3 21 -13z m1490 0 c13 -16 12 -17 -3 -4 -10 7 -18 15 -18 17 0 8
8 3 21 -13z m2999 3 c0 -2 -8 -10 -17 -17 -16 -13 -17 -12 -4 4 13 16 21 21
21 13z m-370 -61 c19 -19 32 -35 29 -35 -3 0 -20 16 -39 35 -19 19 -32 35 -29
35 3 0 20 -16 39 -35z m1810 31 c0 -2 -8 -10 -17 -17 -16 -13 -17 -12 -4 4 13
16 21 21 21 13z m-5859 -23 c13 -16 12 -17 -3 -4 -10 7 -18 15 -18 17 0 8 8 3
21 -13z m1490 0 c13 -16 12 -17 -3 -4 -10 7 -18 15 -18 17 0 8 8 3 21 -13z
m319 14 c0 -2 -15 -16 -32 -33 l-33 -29 29 33 c28 30 36 37 36 29z m2540 -11
c0 -2 -8 -10 -17 -17 -16 -13 -17 -12 -4 4 13 16 21 21 21 13z m1440 -30 c0
-2 -8 -10 -17 -17 -16 -13 -17 -12 -4 4 13 16 21 21 21 13z m-5719 -23 c13
-16 12 -17 -3 -4 -10 7 -18 15 -18 17 0 8 8 3 21 -13z m5649 -27 c0 -2 -8 -10
-17 -17 -16 -13 -17 -12 -4 4 13 16 21 21 21 13z m-5579 -23 c13 -16 12 -17
-3 -4 -10 7 -18 15 -18 17 0 8 8 3 21 -13z m5539 -7 c0 -2 -8 -10 -17 -17 -16
-13 -17 -12 -4 4 13 16 21 21 21 13z m-5499 -23 c13 -16 12 -17 -3 -4 -10 7
-18 15 -18 17 0 8 8 3 21 -13z m5429 -27 c0 -2 -8 -10 -17 -17 -16 -13 -17
-12 -4 4 13 16 21 21 21 13z m-5359 -23 c13 -16 12 -17 -3 -4 -10 7 -18 15
-18 17 0 8 8 3 21 -13z m5289 -27 c0 -2 -8 -10 -17 -17 -16 -13 -17 -12 -4 4
13 16 21 21 21 13z m-5219 -23 c13 -16 12 -17 -3 -4 -10 7 -18 15 -18 17 0 8
8 3 21 -13z m5149 -27 c0 -2 -8 -10 -17 -17 -16 -13 -17 -12 -4 4 13 16 21 21
21 13z m-5079 -23 c13 -16 12 -17 -3 -4 -10 7 -18 15 -18 17 0 8 8 3 21 -13z
m5009 -27 c0 -2 -8 -10 -17 -17 -16 -13 -17 -12 -4 4 13 16 21 21 21 13z
m-4939 -23 c13 -16 12 -17 -3 -4 -10 7 -18 15 -18 17 0 8 8 3 21 -13z m40 -30
c13 -16 12 -17 -3 -4 -10 7 -18 15 -18 17 0 8 8 3 21 -13z m4829 3 c0 -2 -8
-10 -17 -17 -16 -13 -17 -12 -4 4 13 16 21 21 21 13z m-40 -30 c0 -2 -8 -10
-17 -17 -16 -13 -17 -12 -4 4 13 16 21 21 21 13z m-4719 -23 c13 -16 12 -17
-3 -4 -10 7 -18 15 -18 17 0 8 8 3 21 -13z m4649 -27 c0 -2 -8 -10 -17 -17
-16 -13 -17 -12 -4 4 13 16 21 21 21 13z m-4579 -23 c13 -16 12 -17 -3 -4 -10
7 -18 15 -18 17 0 8 8 3 21 -13z m4509 -27 c0 -2 -8 -10 -17 -17 -16 -13 -17
-12 -4 4 13 16 21 21 21 13z m-4439 -23 c13 -16 12 -17 -3 -4 -10 7 -18 15
-18 17 0 8 8 3 21 -13z m4369 -27 c0 -2 -8 -10 -17 -17 -16 -13 -17 -12 -4 4
13 16 21 21 21 13z m-4299 -23 c13 -16 12 -17 -3 -4 -10 7 -18 15 -18 17 0 8
8 3 21 -13z m4229 -27 c0 -2 -8 -10 -17 -17 -16 -13 -17 -12 -4 4 13 16 21 21
21 13z m-4159 -23 c13 -16 12 -17 -3 -4 -10 7 -18 15 -18 17 0 8 8 3 21 -13z
m40 -30 c13 -16 12 -17 -3 -4 -10 7 -18 15 -18 17 0 8 8 3 21 -13z m4049 3 c0
-2 -8 -10 -17 -17 -16 -13 -17 -12 -4 4 13 16 21 21 21 13z m-40 -30 c0 -2 -8
-10 -17 -17 -16 -13 -17 -12 -4 4 13 16 21 21 21 13z m-3939 -23 c13 -16 12
-17 -3 -4 -10 7 -18 15 -18 17 0 8 8 3 21 -13z m3869 -27 c0 -2 -8 -10 -17
-17 -16 -13 -17 -12 -4 4 13 16 21 21 21 13z m-3799 -23 c13 -16 12 -17 -3 -4
-10 7 -18 15 -18 17 0 8 8 3 21 -13z m3729 -27 c0 -2 -8 -10 -17 -17 -16 -13
-17 -12 -4 4 13 16 21 21 21 13z m-3659 -23 c13 -16 12 -17 -3 -4 -10 7 -18
15 -18 17 0 8 8 3 21 -13z m3589 -27 c0 -2 -8 -10 -17 -17 -16 -13 -17 -12 -4
4 13 16 21 21 21 13z m-3519 -23 c13 -16 12 -17 -3 -4 -10 7 -18 15 -18 17 0
8 8 3 21 -13z m3449 -27 c0 -2 -8 -10 -17 -17 -16 -13 -17 -12 -4 4 13 16 21
21 21 13z m-3379 -23 c13 -16 12 -17 -3 -4 -10 7 -18 15 -18 17 0 8 8 3 21
-13z m3339 -7 c0 -2 -8 -10 -17 -17 -16 -13 -17 -12 -4 4 13 16 21 21 21 13z
m-3299 -23 c13 -16 12 -17 -3 -4 -10 7 -18 15 -18 17 0 8 8 3 21 -13z m3229
-27 c0 -2 -8 -10 -17 -17 -16 -13 -17 -12 -4 4 13 16 21 21 21 13z m-3159 -23
c13 -16 12 -17 -3 -4 -10 7 -18 15 -18 17 0 8 8 3 21 -13z m3089 -27 c0 -2 -8
-10 -17 -17 -16 -13 -17 -12 -4 4 13 16 21 21 21 13z m-3019 -23 c13 -16 12
-17 -3 -4 -10 7 -18 15 -18 17 0 8 8 3 21 -13z m2949 -27 c0 -2 -8 -10 -17
-17 -16 -13 -17 -12 -4 4 13 16 21 21 21 13z m-2879 -23 c13 -16 12 -17 -3 -4
-10 7 -18 15 -18 17 0 8 8 3 21 -13z m2809 -27 c0 -2 -8 -10 -17 -17 -16 -13
-17 -12 -4 4 13 16 21 21 21 13z m-2739 -23 c13 -16 12 -17 -3 -4 -10 7 -18
15 -18 17 0 8 8 3 21 -13z m2669 -27 c0 -2 -8 -10 -17 -17 -16 -13 -17 -12 -4
4 13 16 21 21 21 13z m-2599 -23 c13 -16 12 -17 -3 -4 -10 7 -18 15 -18 17 0
8 8 3 21 -13z m2559 -7 c0 -2 -8 -10 -17 -17 -16 -13 -17 -12 -4 4 13 16 21
21 21 13z m-2519 -23 c13 -16 12 -17 -3 -4 -10 7 -18 15 -18 17 0 8 8 3 21
-13z m2449 -27 c0 -2 -8 -10 -17 -17 -16 -13 -17 -12 -4 4 13 16 21 21 21 13z
m-2379 -23 c13 -16 12 -17 -3 -4 -10 7 -18 15 -18 17 0 8 8 3 21 -13z m2309
-27 c0 -2 -8 -10 -17 -17 -16 -13 -17 -12 -4 4 13 16 21 21 21 13z m-2239 -23
c13 -16 12 -17 -3 -4 -10 7 -18 15 -18 17 0 8 8 3 21 -13z m2169 -27 c0 -2 -8
-10 -17 -17 -16 -13 -17 -12 -4 4 13 16 21 21 21 13z m-2099 -23 c13 -16 12
-17 -3 -4 -10 7 -18 15 -18 17 0 8 8 3 21 -13z m2029 -27 c0 -2 -8 -10 -17
-17 -16 -13 -17 -12 -4 4 13 16 21 21 21 13z m-1959 -23 c13 -16 12 -17 -3 -4
-10 7 -18 15 -18 17 0 8 8 3 21 -13z m1889 -27 c0 -2 -8 -10 -17 -17 -16 -13
-17 -12 -4 4 13 16 21 21 21 13z m-1819 -23 c13 -16 12 -17 -3 -4 -10 7 -18
15 -18 17 0 8 8 3 21 -13z m1779 -7 c0 -2 -8 -10 -17 -17 -16 -13 -17 -12 -4
4 13 16 21 21 21 13z m-1739 -23 c13 -16 12 -17 -3 -4 -10 7 -18 15 -18 17 0
8 8 3 21 -13z m1669 -27 c0 -2 -8 -10 -17 -17 -16 -13 -17 -12 -4 4 13 16 21
21 21 13z m-1599 -23 c13 -16 12 -17 -3 -4 -10 7 -18 15 -18 17 0 8 8 3 21
-13z m1529 -27 c0 -2 -8 -10 -17 -17 -16 -13 -17 -12 -4 4 13 16 21 21 21 13z
m-1459 -23 c13 -16 12 -17 -3 -4 -10 7 -18 15 -18 17 0 8 8 3 21 -13z m1389
-27 c0 -2 -8 -10 -17 -17 -16 -13 -17 -12 -4 4 13 16 21 21 21 13z m-1319 -23
c13 -16 12 -17 -3 -4 -10 7 -18 15 -18 17 0 8 8 3 21 -13z m1249 -27 c0 -2 -8
-10 -17 -17 -16 -13 -17 -12 -4 4 13 16 21 21 21 13z m-3052 -1106 c66 -11
151 -36 165 -49 12 -12 -69 -206 -85 -204 -7 2 -44 11 -83 22 -228 64 -365
-33 -365 -259 0 -186 94 -282 258 -263 l52 6 0 68 0 69 -85 0 -85 0 0 105 0
105 210 0 210 0 -2 -262 -3 -262 -70 -18 c-38 -10 -127 -23 -196 -30 -108 -10
-137 -9 -205 4 -244 48 -357 202 -358 483 0 216 77 360 234 440 99 50 263 68
408 45z m1242 -467 c84 -258 155 -474 158 -481 3 -10 -27 -12 -144 -10 l-148
3 -20 83 -20 82 -152 0 -152 0 -23 -85 -22 -85 -147 0 -148 0 62 193 c34 105
105 321 156 480 l94 287 176 0 176 0 154 -467z m678 90 l2 -373 180 0 180 0 0
-105 0 -105 -315 0 -315 0 0 480 0 481 133 -3 132 -3 3 -372z m1372 -90 c84
-258 155 -474 158 -481 3 -10 -27 -12 -144 -10 l-148 3 -20 83 -20 82 -152 0
-152 0 -23 -85 -22 -85 -147 0 -148 0 62 193 c34 105 105 321 156 480 l94 287
176 0 176 0 154 -467z m702 323 c67 -117 85 -141 93 -128 5 9 41 73 80 142
l71 125 153 3 c121 2 152 0 148 -10 -2 -7 -70 -118 -150 -247 -90 -144 -143
-239 -138 -245 22 -28 311 -447 311 -451 0 -3 -69 -5 -153 -5 l-154 0 -89 143
-89 143 -88 -143 -89 -143 -149 0 c-82 0 -149 3 -149 6 0 3 46 76 102 162 56
86 125 194 154 238 l53 82 -127 198 c-70 110 -138 216 -151 237 l-23 37 150 0
150 0 84 -144z m1086 -28 c42 -92 80 -164 84 -160 4 4 39 77 78 162 39 85 75
159 79 163 4 4 71 6 149 5 l141 -3 -159 -295 -160 -295 0 -182 0 -183 -135 0
-135 0 0 183 0 183 -151 284 c-83 156 -153 290 -156 297 -4 11 23 13 141 11
l147 -3 77 -167z m-4460 -1030 c17 -5 32 -13 32 -18 0 -7 -29 -82 -34 -87 -1
-1 -23 4 -49 12 -62 19 -93 7 -114 -42 -20 -50 -12 -117 18 -150 21 -21 30
-24 69 -20 25 3 55 9 68 12 21 7 22 5 22 -43 0 -47 -2 -51 -31 -61 -40 -14
-112 -14 -160 -1 -93 26 -143 157 -108 283 30 110 148 157 287 115z m602 -193
l0 -205 -60 0 -60 0 0 205 0 205 60 0 60 0 0 -205z m669 128 c22 -43 52 -101
68 -129 l28 -51 -4 128 -3 129 56 0 56 0 0 -205 0 -205 -77 0 -78 0 -65 128
-65 127 -3 -128 -3 -127 -49 0 -50 0 0 205 0 205 75 0 75 0 39 -77z m931 27
l0 -50 -65 0 c-63 0 -65 -1 -65 -25 0 -24 3 -25 60 -25 l60 0 0 -50 0 -50 -60
0 -60 0 0 -35 0 -35 65 0 65 0 0 -45 0 -45 -125 0 -125 0 0 205 0 205 125 0
125 0 0 -50z m627 -5 c8 -27 26 -88 40 -135 l26 -85 29 100 c15 55 33 117 39
138 l10 37 79 0 80 0 0 -205 0 -205 -55 0 -54 0 -3 123 -3 122 -34 -122 -33
-123 -58 0 -59 0 -16 58 c-9 31 -25 84 -35 117 l-18 60 -1 -117 -1 -118 -50 0
-50 0 0 205 0 206 76 -3 77 -3 14 -50z m1082 -137 c35 -106 66 -199 69 -206 3
-10 -11 -12 -64 -10 -67 3 -68 3 -76 36 l-9 33 -61 -3 c-60 -3 -62 -4 -70 -35
-9 -33 -9 -33 -73 -33 -36 0 -65 3 -65 7 0 5 27 91 61 193 33 102 62 191 64
198 3 8 29 12 82 12 l78 0 64 -192z"/>
<path d="M7524 10708 l-19 -23 23 19 c21 18 27 26 19 26 -2 0 -12 -10 -23 -22z"/>
<path d="M7529 6713 c-13 -16 -12 -17 4 -4 16 13 21 21 13 21 -2 0 -10 -8 -17
-17z"/>
<path d="M8310 12403 l-255 -258 258 255 c239 237 262 260 254 260 -1 0 -117
-116 -257 -257z"/>
<path d="M6275 5365 c-4 -17 -25 -99 -46 -184 -22 -85 -38 -156 -36 -158 3 -2
45 -2 94 -1 l89 3 -47 185 c-38 149 -49 179 -54 155z"/>
<path d="M8325 5365 c-4 -17 -25 -99 -46 -184 -22 -85 -38 -156 -36 -158 3 -2
45 -2 94 -1 l89 3 -47 185 c-38 149 -49 179 -54 155z"/>
<path d="M9739 4226 l-16 -66 34 0 c35 0 35 0 28 37 -4 21 -12 50 -19 67 -11
28 -12 28 -27 -38z"/>
</g>
</svg>
