<?xml version="1.0" standalone="no"?>
<!DOCTYPE svg PUBLIC "-//W3C//DTD SVG 20010904//EN"
 "http://www.w3.org/TR/2001/REC-SVG-20010904/DTD/svg10.dtd">
<svg version="1.0" xmlns="http://www.w3.org/2000/svg"
 width="602.000000pt" height="555.000000pt" viewBox="0 0 602.000000 555.000000"
 preserveAspectRatio="xMidYMid meet">
<metadata>
Created by potrace 1.15, written by Peter Selinger 2001-2017
</metadata>
<g transform="translate(0.000000,555.000000) scale(0.100000,-0.100000)"
fill="#000000" stroke="none">
<path d="M3323 3480 c-103 -14 -184 -38 -264 -76 l-76 -36 -74 35 c-102 49
-176 67 -299 74 -276 15 -482 -100 -589 -327 -35 -74 -38 -97 -13 -103 96 -26
153 -39 155 -36 2 2 19 38 39 79 83 170 203 238 405 228 100 -5 201 -32 230
-61 13 -12 10 -21 -22 -72 -50 -77 -91 -180 -112 -279 -25 -112 -24 -315 2
-416 21 -87 81 -223 120 -274 15 -20 25 -42 22 -49 -14 -36 -154 -77 -260 -77
-202 0 -352 112 -422 314 -20 58 -22 61 -51 58 -55 -6 -149 -39 -150 -53 0
-26 48 -144 82 -200 19 -31 64 -84 100 -118 128 -120 277 -169 484 -158 139 8
212 26 306 76 l71 38 79 -37 c106 -51 211 -72 359 -72 205 0 360 48 538 166
l87 58 0 279 0 279 -315 0 -316 0 3 -82 3 -83 211 -1 c117 -1 217 -4 222 -8 6
-3 11 -63 11 -141 2 -133 1 -136 -24 -159 -34 -31 -144 -89 -225 -117 -55 -19
-85 -23 -200 -23 -114 0 -145 4 -200 23 -36 12 -75 29 -87 36 l-21 14 41 83
c23 46 47 97 54 113 24 61 45 183 50 283 9 199 -28 370 -110 507 -23 38 -43
72 -45 76 -1 3 15 14 35 26 112 60 308 77 438 36 132 -42 230 -137 265 -261 9
-31 17 -41 29 -38 110 28 151 43 151 53 0 26 -49 144 -80 192 -89 140 -263
223 -493 235 -45 3 -110 1 -144 -4z m-305 -427 c88 -194 88 -496 0 -695 -12
-27 -25 -48 -29 -48 -13 0 -59 88 -82 157 -19 60 -22 88 -22 243 1 154 4 183
23 239 30 86 63 151 77 151 6 0 21 -21 33 -47z"/>
</g>
</svg>
